<svg width="500" height="500" viewBox="0 0 500 500" fill="none" xmlns="http://www.w3.org/2000/svg">
  <path d="M250 500C388.071 500 500 388.071 500 250C500 111.929 388.071 0 250 0C111.929 0 0 111.929 0 250C0 388.071 111.929 500 250 500Z" fill="#E0F2FE"/>
  <path d="M250 450C357.168 450 445 362.168 445 255C445 147.832 357.168 60 250 60C142.832 60 55 147.832 55 255C55 362.168 142.832 450 250 450Z" fill="white"/>
  <path d="M250 400C331.421 400 400 331.421 400 250C400 168.579 331.421 100 250 100C168.579 100 100 168.579 100 250C100 331.421 168.579 400 250 400Z" fill="#E0F2FE"/>
  <path d="M250 350C307.228 350 355 302.228 355 245C355 187.772 307.228 140 250 140C192.772 140 145 187.772 145 245C145 302.228 192.772 350 250 350Z" fill="white"/>
  <path d="M250 300C282.137 300 310 272.137 310 240C310 207.863 282.137 180 250 180C217.863 180 190 207.863 190 240C190 272.137 217.863 300 250 300Z" fill="#0EA5E9"/>
  <path d="M250 240C262.15 240 272 230.15 272 218C272 205.85 262.15 196 250 196C237.85 196 228 205.85 228 218C228 230.15 237.85 240 250 240Z" fill="white"/>
</svg>