<svg width="600" height="400" viewBox="0 0 600 400" fill="none" xmlns="http://www.w3.org/2000/svg">
  <path d="M0 0H600V400H0V0Z" fill="#E0F2FE"/>
  <path d="M300 200C407.168 200 495 112.168 495 5C495 -102.168 407.168 -190 300 -190C192.832 -190 105 -102.168 105 5C105 112.168 192.832 200 300 200Z" fill="white"/>
  <path d="M300 150C376.274 150 440 86.2742 440 10C440 -66.2742 376.274 -130 300 -130C223.726 -130 160 -66.2742 160 10C160 86.2742 223.726 150 300 150Z" fill="#0EA5E9"/>
  <path d="M300 100C345.183 100 385 60.1831 385 15C385 -30.1831 345.183 -70 300 -70C254.817 -70 215 -30.1831 215 15C215 60.1831 254.817 100 300 100Z" fill="white"/>
  <path d="M300 50C318.225 50 335 33.2254 335 15C335 -3.2254 318.225 -20 300 -20C281.775 -20 265 -3.2254 265 15C265 33.2254 281.775 50 300 50Z" fill="#0EA5E9"/>
  <path d="M300 0C300 0 310 10 310 20C310 30 300 40 300 40C300 40 290 30 290 20C290 10 300 0 300 0Z" fill="white"/>
  <path d="M100 300C207.168 300 295 212.168 295 105C295 -2.168 207.168 -90 100 -90C-7.168 -90 -95 -2.168 -95 105C-95 212.168 -7.168 300 100 300Z" fill="white"/>
  <path d="M100 250C176.274 250 240 186.274 240 110C240 33.7258 176.274 -30 100 -30C23.7258 -30 -40 33.7258 -40 110C-40 186.274 23.7258 250 100 250Z" fill="#0EA5E9"/>
  <path d="M100 200C145.183 200 185 160.183 185 115C185 69.8166 145.183 30 100 30C54.8166 30 15 69.8166 15 115C15 160.183 54.8166 200 100 200Z" fill="white"/>
  <path d="M100 150C118.225 150 135 133.225 135 115C135 96.7746 118.225 80 100 80C81.7746 80 65 96.7746 65 115C65 133.225 81.7746 150 100 150Z" fill="#0EA5E9"/>
  <path d="M100 100C100 100 110 110 110 120C110 130 100 140 100 140C100 140 90 130 90 120C90 110 100 100 100 100Z" fill="white"/>
  <path d="M500 300C607.168 300 695 212.168 695 105C695 -2.168 607.168 -90 500 -90C392.832 -90 305 -2.168 305 105C305 212.168 392.832 300 500 300Z" fill="white"/>
  <path d="M500 250C576.274 250 640 186.274 640 110C640 33.7258 576.274 -30 500 -30C423.726 -30 360 33.7258 360 110C360 186.274 423.726 250 500 250Z" fill="#0EA5E9"/>
  <path d="M500 200C545.183 200 585 160.183 585 115C585 69.8166 545.183 30 500 30C454.817 30 415 69.8166 415 115C415 160.183 454.817 200 500 200Z" fill="white"/>
  <path d="M500 150C518.225 150 535 133.225 535 115C535 96.7746 518.225 80 500 80C481.775 80 465 96.7746 465 115C465 133.225 481.775 150 500 150Z" fill="#0EA5E9"/>
  <path d="M500 100C500 100 510 110 510 120C510 130 500 140 500 140C500 140 490 130 490 120C490 110 500 100 500 100Z" fill="white"/>
</svg>